# xmcd CD database file
#
# Track frame offsets:
#	150
#	12232
#	22650
#	39992
#	51725
#	63297
#	77092
#	89177
#	100202
#	112815
#	124827
#	138400
#	149910
#	160615
#	174122
#	185517
#
# Disc length: 2601 seconds
#
# Revision: 2
# Processed by: cddbd v1.4b41PL1 Copyright (c) Steve Scherf et al.
# Submitted via: Feurio! 1.51.12ß - http://www.feurio.com
#
DISCID=d40a2710
DTITLE=Various Artist - Golden Country Greats Vol. 1
DYEAR=1900
DGENRE=
TTITLE0=Jonny Cash - Ring of Fire
TTITLE1=Don Gibson - Oh Lonesome Me
TTITLE2=Andre Lamberz and Hills Angels - Good Hearted Women
TTITLE3=Nina Martin - Silver Threads And Golden Needles
TTITLE4=Wanda Jackson - In The Middle of A Heartache
TTITLE5=Lynn Anderson - Rose Garden
TTITLE6=Tennesse Ernie Ford - Sixteen Tons
TTITLE7=Roger Miller - King Of The Road
TTITLE8=Faron Young - It's Four In The Morning
TTITLE9=Kitty Wells - Heartbreak USA
TTITLE10=Bobby Helms - My Special Angel
TTITLE11=Sonny James - Young Love
TTITLE12=Buck Owens - Act Naturally
TTITLE13=Hank Looklin - Pleas Help Me I'm Falling
TTITLE14=Marty Robbins - Singing The Blues
TTITLE15=Ned Miller - From A Jack To A King
EXTD=# 022 - 
EXTT0=
EXTT1=
EXTT2=
EXTT3=
EXTT4=
EXTT5=
EXTT6=
EXTT7=
EXTT8=
EXTT9=
EXTT10=
EXTT11=
EXTT12=
EXTT13=
EXTT14=
EXTT15=
PLAYORDER=
